<svg width="24" height="24" xmlns="http://www.w3.org/2000/svg">

 <g>
  <title>Layer 1</title>
  <path stroke-width="0" stroke="#ffffff" fill="#333333" d="m0,0l24,0l0,24l-24,0l0,-24z" data-name="Path 3674" id="Path_3674"/>
  <path fill="#ffffff" d="m7.58,4.08l-1.43,-1.43a10.425,10.425 0 0 0 -4.12,7.85l2,0a8.446,8.446 0 0 1 3.55,-6.42zm12.39,6.42l2,0a10.489,10.489 0 0 0 -4.12,-7.85l-1.42,1.43a8.5,8.5 0 0 1 3.54,6.42zm-1.97,0.5c0,-3.07 -1.64,-5.64 -4.5,-6.32l0,-0.68a1.5,1.5 0 0 0 -3,0l0,0.68c-2.87,0.68 -4.5,3.24 -4.5,6.32l0,5l-2,2l0,1l16,0l0,-1l-2,-2l0,-5zm-6,11a1.752,1.752 0 0 0 0.4,-0.04a2.029,2.029 0 0 0 1.44,-1.18a2.008,2.008 0 0 0 0.15,-0.78l-4,0a2.014,2.014 0 0 0 2.01,2z" data-name="Path 3675" id="Path_3675"/>
 </g>
</svg>