<svg width="20" height="20" xmlns="http://www.w3.org/2000/svg">

 <g>
  <title>Layer 1</title>
  <path stroke="null" fill="#ffffff" d="m6.936,19.974a1.242,1.242 0 0 1 -0.92,-0.778l-2.513,-6.7l-0.379,0a0.625,0.625 0 0 1 -0.625,-0.626l0,-0.625l-1.876,0a0.625,0.625 0 0 1 -0.625,-0.625l0,-3.75a0.625,0.625 0 0 1 0.625,-0.625l1.876,0l0,-0.626a0.625,0.625 0 0 1 0.625,-0.625l6.228,0c0.217,-0.01 0.431,-0.044 0.647,-0.064l0,7.628c-0.214,-0.021 -0.427,-0.054 -0.642,-0.064l-1.66,0l2.1,4.2a1.247,1.247 0 0 1 -0.229,1.446l-1.5,1.489a1.215,1.215 0 0 1 -0.879,0.37a1.25,1.25 0 0 1 -0.253,-0.025zm12.183,-2.53c-0.019,-0.009 -0.033,-0.025 -0.052,-0.036a0.6,0.6 0 0 1 -0.155,-0.121c-0.006,-0.007 -0.015,-0.01 -0.021,-0.016a13.146,13.146 0 0 0 -7.642,-4.527l0,-7.988a13.148,13.148 0 0 0 7.642,-4.528c0.005,-0.005 0.013,-0.006 0.018,-0.012a0.621,0.621 0 0 1 0.274,-0.177a0.461,0.461 0 0 1 0.07,-0.014a0.561,0.561 0 0 1 0.122,-0.025a0.627,0.627 0 0 1 0.175,0.035a0.04,0.04 0 0 0 0.018,0a0.042,0.042 0 0 1 0.018,0s0.006,0.006 0.01,0.007a0.62,0.62 0 0 1 0.262,0.2a0.414,0.414 0 0 1 0.04,0.059a0.6,0.6 0 0 1 0.1,0.322l0,16.249a0.6,0.6 0 0 1 -0.1,0.322c-0.014,0.022 -0.025,0.039 -0.04,0.059a0.6,0.6 0 0 1 -0.262,0.2s-0.006,0.006 -0.01,0.008a0.628,0.628 0 0 1 -0.466,-0.019l-0.001,0.002z" data-name="Forma 1" id="Forma_1"/>
 </g>
</svg>