<?xml version="1.0" standalone="no"?>
<!DOCTYPE svg PUBLIC "-//W3C//DTD SVG 20010904//EN"
 "http://www.w3.org/TR/2001/REC-SVG-20010904/DTD/svg10.dtd">
<svg version="1.0" xmlns="http://www.w3.org/2000/svg"
 width="24.000000pt" height="24.000000pt" viewBox="0 0 24.000000 24.000000"
 preserveAspectRatio="xMidYMid meet">

<g transform="translate(0.000000,24.000000) scale(0.100000,-0.100000)"
fill="#000000" stroke="none">
<path d="M37 192 c-29 -31 -20 -60 33 -115 l50 -52 50 52 c32 33 50 60 50 76
0 44 -59 74 -88 45 -9 -9 -15 -9 -24 0 -18 18 -53 15 -71 -6z m63 -12 c13 -7
27 -6 44 1 20 9 29 9 41 -1 23 -19 18 -37 -24 -83 l-40 -42 -35 34 c-42 41
-52 66 -36 86 15 18 25 19 50 5z"/>
</g>
</svg>
