<svg width="512" height="512" xmlns="http://www.w3.org/2000/svg" preserveAspectRatio="xMidYMid meet" version="1.0">

 <g>
  <title>Layer 1</title>
  <g id="svg_1" fill="#000000" transform="translate(0 512) scale(0.1 -0.1)">
   <path fill="#3fd28b" id="svg_2" d="m2110,4484c-79,-21 -116,-46 -300,-201c-1051,-882 -1497,-1255 -1542,-1289c-105,-80 -161,-197 -161,-339c0,-101 20,-167 74,-249c23,-34 235,-218 737,-639c388,-326 785,-658 881,-740c175,-146 238,-187 322,-206c140,-33 304,15 405,118c92,93 129,194 122,330c-7,115 -35,185 -103,259c-29,31 -220,197 -423,367c-204,171 -371,313 -372,318c0,4 638,7 1418,7c1536,0 1459,-3 1565,52c49,25 121,90 157,144c87,126 93,324 14,460c-37,63 -126,141 -201,177l-68,32l-1438,3c-791,1 -1437,6 -1435,11c2,5 172,150 378,323c206,173 392,334 414,358c62,69 99,159 104,257c5,92 -7,151 -45,230c-30,61 -119,150 -181,182c-97,50 -218,63 -322,35z"/>
  </g>
 </g>
</svg>