<?xml version="1.0" standalone="no"?>
<!DOCTYPE svg PUBLIC "-//W3C//DTD SVG 20010904//EN"
 "http://www.w3.org/TR/2001/REC-SVG-20010904/DTD/svg10.dtd">
<svg version="1.0" xmlns="http://www.w3.org/2000/svg"
 width="24.000000pt" height="24.000000pt" viewBox="0 0 24.000000 24.000000"
 preserveAspectRatio="xMidYMid meet">

<g transform="translate(0.000000,24.000000) scale(0.100000,-0.100000)"
fill="#000000" stroke="none">
<path d="M0 225 c0 -12 20 -15 120 -15 100 0 120 3 120 15 0 13 -20 15 -120
15 -100 0 -120 -2 -120 -15z"/>
<path d="M75 130 l-39 -40 27 0 c25 0 27 -3 27 -45 0 -43 1 -45 30 -45 29 0
30 2 30 45 0 42 2 45 27 45 l27 0 -39 40 c-21 22 -42 40 -45 40 -3 0 -24 -18
-45 -40z"/>
</g>
</svg>
